<?xml version="1.0" encoding="UTF-8" standalone="no"?>
<!DOCTYPE svg PUBLIC "-//W3C//DTD SVG 1.1//EN" "http://www.w3.org/Graphics/SVG/1.1/DTD/svg11.dtd">
<!-- Generated by Microsoft Visio, SVG Export AFINESSE.svg Page-1 -->
<svg xmlns="http://www.w3.org/2000/svg" xmlns:xlink="http://www.w3.org/1999/xlink" xmlns:ev="http://www.w3.org/2001/xml-events"
		xmlns:v="http://schemas.microsoft.com/visio/2003/SVGExtensions/" width="2.16146in" height="1.78819in"
		viewBox="0 0 155.625 128.75" xml:space="preserve" color-interpolation-filters="sRGB" class="st6">
	<v:documentProperties v:langID="1033" v:viewMarkup="false">
		<v:userDefs>
			<v:ud v:nameU="msvNoAutoConnect" v:val="VT0(1):26"/>
		</v:userDefs>
	</v:documentProperties>

	<style type="text/css">
	<![CDATA[
		.st1 {fill:none;stroke:none;stroke-linecap:round;stroke-linejoin:round;stroke-width:0.75}
		.st2 {fill:#3b5da7;font-family:Verdana;font-size:1.16666em;font-weight:bold}
		.st3 {font-size:1em}
		.st4 {stroke:#3b5da7;stroke-linecap:round;stroke-linejoin:round;stroke-width:3}
		.st5 {fill:#ffffff;stroke:#3b5da7;stroke-linecap:round;stroke-linejoin:round;stroke-width:3}
		.st6 {fill:none;fill-rule:evenodd;font-size:12px;overflow:visible;stroke-linecap:square;stroke-miterlimit:3}
	]]>
	</style>

	<g v:mID="0" v:index="1" v:groupContext="foregroundPage">
		<title>Page-1</title>
		<v:pageProperties v:drawingScale="1" v:pageScale="1" v:drawingUnits="19" v:shadowOffsetX="9" v:shadowOffsetY="-9"/>
		<g id="shape1-1" v:mID="1" v:groupContext="shape" transform="translate(93.5448,1.125)">
			<title>Sheet.1</title>
			<desc>FINESSE</desc>
			<v:textBlock v:margins="rect(4,4,4,4)"/>
			<v:textRect cx="9.95519" cy="64.625" width="19.92" height="128.25"/>
			<rect x="0" y="0.5" width="19.9104" height="128.25" class="st1"/>
			<text x="5.4" y="18.43" class="st2" v:langID="1033"><v:paragraph v:horizAlign="1"/><v:tabList/>F<tspan x="6.13"
						dy="1.2em" class="st3">I</tspan><tspan x="4.03" dy="1.2em" class="st3">N</tspan><tspan x="5.17" dy="1.2em"
						class="st3">E</tspan><tspan x="4.98" dy="1.2em" class="st3">S</tspan><tspan x="4.98" dy="1.2em" class="st3">S</tspan><tspan
						x="5.17" dy="1.2em" class="st3">E</tspan></text>		</g>
		<g id="shape149-10" v:mID="149" v:groupContext="shape" transform="translate(117.715,1.125)">
			<title>Sheet.149</title>
			<desc>ADMIN</desc>
			<v:textBlock v:margins="rect(4,4,4,4)"/>
			<v:textRect cx="9.95519" cy="64.625" width="19.92" height="128.25"/>
			<rect x="0" y="0.5" width="19.9104" height="128.25" class="st1"/>
			<text x="4.52" y="35.23" class="st2" v:langID="1033"><v:paragraph v:horizAlign="1"/><v:tabList/>A<tspan x="4.14"
						dy="1.2em" class="st3">D</tspan><tspan x="4" dy="1.2em" class="st3">M</tspan><tspan x="6.13" dy="1.2em"
						class="st3">I</tspan><tspan x="4.03" dy="1.2em" class="st3">N</tspan></text>		</g>
		<g id="group150-17" transform="translate(17.2854,-27)" v:mID="150" v:groupContext="group">
			<v:custProps>
				<v:cp v:nameU="Manufacturer" v:lbl="Manufacturer" v:type="0" v:format="" v:sortKey="Equipment" v:invis="false"
						v:ask="false" v:langID="1033"/>
				<v:cp v:nameU="ProductNumber" v:lbl="Product Number" v:type="0" v:format="" v:sortKey="Equipment" v:invis="false"
						v:ask="false" v:langID="1033"/>
				<v:cp v:nameU="PartNumber" v:lbl="Part Number" v:type="0" v:format="" v:sortKey="Equipment" v:invis="false"
						v:ask="false" v:langID="1033"/>
				<v:cp v:nameU="ProductDescription" v:lbl="Product Description" v:type="0" v:format="" v:sortKey="Equipment"
						v:invis="false" v:ask="false" v:langID="1033"/>
				<v:cp v:nameU="AssetNumber" v:lbl="Asset Number" v:type="0" v:format="" v:sortKey="Asset" v:invis="false"
						v:ask="false" v:langID="1033"/>
				<v:cp v:nameU="SerialNumber" v:lbl="Serial Number" v:type="0" v:format="" v:sortKey="Asset" v:invis="false"
						v:ask="false" v:langID="1033"/>
				<v:cp v:nameU="Location" v:lbl="Location" v:type="0" v:format="" v:sortKey="Asset" v:invis="false" v:ask="false"
						v:langID="1033"/>
				<v:cp v:nameU="Building" v:lbl="Building" v:type="0" v:format="" v:sortKey="Asset" v:invis="false" v:ask="false"
						v:langID="1033"/>
				<v:cp v:nameU="Room" v:lbl="Room" v:type="0" v:format="" v:sortKey="Asset" v:invis="false" v:ask="false"
						v:langID="1033"/>
				<v:cp v:nameU="Department" v:lbl="Department" v:type="0" v:format="" v:sortKey="" v:invis="false" v:ask="false"
						v:langID="1033"/>
				<v:cp v:nameU="ShapeClass" v:lbl="ShapeClass" v:type="0" v:format="" v:sortKey="" v:invis="true" v:ask="false"
						v:langID="1033" v:val="VT4(Connectivity)"/>
				<v:cp v:nameU="ShapeType" v:lbl="ShapeType" v:type="0" v:format="" v:sortKey="" v:invis="true" v:ask="false"
						v:langID="1033" v:val="VT4(RingNetwork)"/>
				<v:cp v:nameU="NetworkName" v:lbl="Network Name" v:type="0" v:format="" v:sortKey="Network" v:invis="false"
						v:ask="false" v:langID="1033"/>
				<v:cp v:nameU="IPAddress" v:lbl="IP Address" v:type="0" v:format="" v:sortKey="Network" v:invis="false"
						v:ask="false" v:langID="1033"/>
				<v:cp v:nameU="SubnetMask" v:lbl="Subnet Mask" v:type="0" v:format="" v:sortKey="Network" v:invis="false"
						v:ask="false" v:langID="1033"/>
				<v:cp v:nameU="AdminInterface" v:lbl="Administrative Interface" v:type="0" v:format="" v:sortKey="Network"
						v:invis="false" v:ask="false" v:langID="1033"/>
				<v:cp v:nameU="NumberofPorts" v:lbl="Number of Ports" v:type="0" v:format="" v:sortKey="Network" v:invis="false"
						v:ask="false" v:langID="1033"/>
				<v:cp v:nameU="MACAddress" v:lbl="MAC Address" v:type="0" v:format="" v:sortKey="Network" v:invis="false"
						v:ask="false" v:langID="1033"/>
				<v:cp v:nameU="CommunityString" v:lbl="Community String" v:type="0" v:format="" v:sortKey="Network" v:invis="false"
						v:ask="false" v:langID="1033"/>
				<v:cp v:nameU="NetworkDescription" v:lbl="Network Description" v:type="0" v:format="" v:sortKey="Network"
						v:invis="false" v:ask="false" v:langID="1033"/>
			</v:custProps>
			<v:userDefs>
				<v:ud v:nameU="visVersion" v:val="VT0(15):26"/>
				<v:ud v:nameU="ShapeClass" v:val="VT0(5):26"/>
				<v:ud v:nameU="ShapeType" v:val="VT0(21):26"/>
				<v:ud v:nameU="SolSH" v:val="VT15({BF0433D9-CD73-4EB5-8390-8653BE590246}):41"/>
				<v:ud v:nameU="visLegendShape" v:val="VT0(2):26"/>
				<v:ud v:nameU="visIsConnected" v:prompt="" v:val="VT0(0):26"/>
			</v:userDefs>
			<title>Ring network</title>
			<g id="shape151-18" v:mID="151" v:groupContext="shape">
				<title>Sheet.151</title>
				<path d="M10.8 117.95 L36 92.75" class="st4"/>
				<path d="M36 128.75 L36 92.75" class="st4"/>
				<path d="M61.2 117.95 L36 92.75" class="st4"/>
				<path d="M72 92.75 L36 92.75" class="st4"/>
				<path d="M61.2 67.55 L36 92.75" class="st4"/>
				<path d="M36 56.75 L36 92.75" class="st4"/>
				<path d="M10.8 67.55 L36 92.75" class="st4"/>
				<path d="M0 92.75 L36 92.75" class="st4"/>
				<path d="M24.48 92.75 L36 92.75" class="st4"/>
				<path d="M28.08 100.67 L36 92.75" class="st4"/>
				<path d="M36 104.27 L36 92.75" class="st4"/>
				<path d="M43.92 100.67 L36 92.75" class="st4"/>
				<path d="M47.52 92.75 L36 92.75" class="st4"/>
				<path d="M43.92 84.83 L36 92.75" class="st4"/>
				<path d="M36 81.23 L36 92.75" class="st4"/>
				<path d="M28.08 84.83 L36 92.75" class="st4"/>
				<path d="M24.48 92.75 L36 92.75" class="st4"/>
				<path d="M28.08 100.67 L36 92.75" class="st4"/>
				<path d="M36 104.27 L36 92.75" class="st4"/>
				<path d="M43.92 100.67 L36 92.75" class="st4"/>
				<path d="M47.52 92.75 L36 92.75" class="st4"/>
				<path d="M43.92 84.83 L36 92.75" class="st4"/>
				<path d="M36 81.23 L36 92.75" class="st4"/>
				<path d="M28.08 84.83 L36 92.75" class="st4"/>
				<path d="M24.48 92.75 L36 92.75" class="st4"/>
				<path d="M28.08 100.67 L36 92.75" class="st4"/>
				<path d="M36 104.27 L36 92.75" class="st4"/>
				<path d="M43.92 100.67 L36 92.75" class="st4"/>
				<path d="M47.52 92.75 L36 92.75" class="st4"/>
				<path d="M43.92 84.83 L36 92.75" class="st4"/>
				<path d="M36 81.23 L36 92.75" class="st4"/>
				<path d="M28.08 84.83 L36 92.75" class="st4"/>
				<path d="M24.48 92.75 L36 92.75" class="st4"/>
				<path d="M28.08 100.67 L36 92.75" class="st4"/>
				<path d="M36 104.27 L36 92.75" class="st4"/>
				<path d="M43.92 100.67 L36 92.75" class="st4"/>
				<path d="M47.52 92.75 L36 92.75" class="st4"/>
				<path d="M43.92 84.83 L36 92.75" class="st4"/>
				<path d="M36 81.23 L36 92.75" class="st4"/>
				<path d="M28.08 84.83 L36 92.75" class="st4"/>
				<path d="M24.48 92.75 L36 92.75" class="st4"/>
				<path d="M28.08 100.67 L36 92.75" class="st4"/>
				<path d="M36 104.27 L36 92.75" class="st4"/>
				<path d="M43.92 100.67 L36 92.75" class="st4"/>
				<path d="M47.52 92.75 L36 92.75" class="st4"/>
				<path d="M43.92 84.83 L36 92.75" class="st4"/>
				<path d="M36 81.23 L36 92.75" class="st4"/>
				<path d="M28.08 84.83 L36 92.75" class="st4"/>
				<path d="M24.48 92.75 L36 92.75" class="st4"/>
				<path d="M28.08 100.67 L36 92.75" class="st4"/>
				<path d="M36 104.27 L36 92.75" class="st4"/>
				<path d="M43.92 100.67 L36 92.75" class="st4"/>
				<path d="M47.52 92.75 L36 92.75" class="st4"/>
				<path d="M43.92 84.83 L36 92.75" class="st4"/>
				<path d="M36 81.23 L36 92.75" class="st4"/>
				<path d="M28.08 84.83 L36 92.75" class="st4"/>
				<path d="M24.48 92.75 L36 92.75" class="st4"/>
				<path d="M28.08 100.67 L36 92.75" class="st4"/>
				<path d="M36 104.27 L36 92.75" class="st4"/>
				<path d="M43.92 100.67 L36 92.75" class="st4"/>
				<path d="M47.52 92.75 L36 92.75" class="st4"/>
				<path d="M43.92 84.83 L36 92.75" class="st4"/>
				<path d="M36 81.23 L36 92.75" class="st4"/>
				<path d="M28.08 84.83 L36 92.75" class="st4"/>
			</g>
			<g id="shape152-84" v:mID="152" v:groupContext="shape">
				<title>Sheet.152</title>
				<v:userDefs>
					<v:ud v:nameU="EllipseSize" v:prompt="" v:val="VT0(0.1):0"/>
				</v:userDefs>
				<path d="M3.6 92.75 A3.6 3.6 -180 1 0 -3.6 92.75 A3.6 3.6 -180 1 0 3.6 92.75 ZM14.4 67.55 A3.6 3.6 -180 1 0 7.2 67.55
							 A3.6 3.6 -180 1 0 14.4 67.55 ZM39.6 56.75 A3.6 3.6 -180 1 0 32.4 56.75 A3.6 3.6 -180 1 0 39.6 56.75
							 ZM64.8 67.55 A3.6 3.6 -180 1 0 57.6 67.55 A3.6 3.6 -180 1 0 64.8 67.55 ZM75.6 92.75 A3.6 3.6 -180 1
							 0 68.4 92.75 A3.6 3.6 -180 1 0 75.6 92.75 ZM64.8 117.95 A3.6 3.6 -180 1 0 57.6 117.95 A3.6 3.6 -180
							 1 0 64.8 117.95 ZM39.6 128.75 A3.6 3.6 -180 1 0 32.4 128.75 A3.6 3.6 -180 1 0 39.6 128.75 ZM14.4 117.95
							 A3.6 3.6 -180 1 0 7.2 117.95 A3.6 3.6 -180 1 0 14.4 117.95 ZM28.08 92.75 A3.6 3.6 -180 1 0 20.88 92.75
							 A3.6 3.6 -180 1 0 28.08 92.75 ZM31.68 100.67 A3.6 3.6 -180 1 0 24.48 100.67 A3.6 3.6 -180 1 0 31.68
							 100.67 ZM39.6 104.27 A3.6 3.6 -180 1 0 32.4 104.27 A3.6 3.6 -180 1 0 39.6 104.27 ZM47.52 100.67 A3.6
							 3.6 -180 1 0 40.32 100.67 A3.6 3.6 -180 1 0 47.52 100.67 ZM51.12 92.75 A3.6 3.6 -180 1 0 43.92 92.75
							 A3.6 3.6 -180 1 0 51.12 92.75 ZM47.52 84.83 A3.6 3.6 -180 1 0 40.32 84.83 A3.6 3.6 -180 1 0 47.52 84.83
							 ZM39.6 81.23 A3.6 3.6 -180 1 0 32.4 81.23 A3.6 3.6 -180 1 0 39.6 81.23 ZM31.68 84.83 A3.6 3.6 -180 1
							 0 24.48 84.83 A3.6 3.6 -180 1 0 31.68 84.83 ZM28.08 92.75 A3.6 3.6 -180 1 0 20.88 92.75 A3.6 3.6 -180
							 1 0 28.08 92.75 ZM31.68 100.67 A3.6 3.6 -180 1 0 24.48 100.67 A3.6 3.6 -180 1 0 31.68 100.67 ZM39.6
							 104.27 A3.6 3.6 -180 1 0 32.4 104.27 A3.6 3.6 -180 1 0 39.6 104.27 ZM47.52 100.67 A3.6 3.6 -180 1 0
							 40.32 100.67 A3.6 3.6 -180 1 0 47.52 100.67 ZM51.12 92.75 A3.6 3.6 -180 1 0 43.92 92.75 A3.6 3.6 -180
							 1 0 51.12 92.75 ZM47.52 84.83 A3.6 3.6 -180 1 0 40.32 84.83 A3.6 3.6 -180 1 0 47.52 84.83 ZM39.6 81.23
							 A3.6 3.6 -180 1 0 32.4 81.23 A3.6 3.6 -180 1 0 39.6 81.23 ZM31.68 84.83 A3.6 3.6 -180 1 0 24.48 84.83
							 A3.6 3.6 -180 1 0 31.68 84.83 ZM28.08 92.75 A3.6 3.6 -180 1 0 20.88 92.75 A3.6 3.6 -180 1 0 28.08 92.75
							 ZM31.68 100.67 A3.6 3.6 -180 1 0 24.48 100.67 A3.6 3.6 -180 1 0 31.68 100.67 ZM39.6 104.27 A3.6 3.6
							 -180 1 0 32.4 104.27 A3.6 3.6 -180 1 0 39.6 104.27 ZM47.52 100.67 A3.6 3.6 -180 1 0 40.32 100.67 A3.6
							 3.6 -180 1 0 47.52 100.67 ZM51.12 92.75 A3.6 3.6 -180 1 0 43.92 92.75 A3.6 3.6 -180 1 0 51.12 92.75
							 ZM47.52 84.83 A3.6 3.6 -180 1 0 40.32 84.83 A3.6 3.6 -180 1 0 47.52 84.83 ZM39.6 81.23 A3.6 3.6 -180
							 1 0 32.4 81.23 A3.6 3.6 -180 1 0 39.6 81.23 ZM31.68 84.83 A3.6 3.6 -180 1 0 24.48 84.83 A3.6 3.6 -180
							 1 0 31.68 84.83 ZM28.08 92.75 A3.6 3.6 -180 1 0 20.88 92.75 A3.6 3.6 -180 1 0 28.08 92.75 ZM31.68 100.67
							 A3.6 3.6 -180 1 0 24.48 100.67 A3.6 3.6 -180 1 0 31.68 100.67 ZM39.6 104.27 A3.6 3.6 -180 1 0 32.4 104.27
							 A3.6 3.6 -180 1 0 39.6 104.27 ZM47.52 100.67 A3.6 3.6 -180 1 0 40.32 100.67 A3.6 3.6 -180 1 0 47.52
							 100.67 ZM51.12 92.75 A3.6 3.6 -180 1 0 43.92 92.75 A3.6 3.6 -180 1 0 51.12 92.75 ZM47.52 84.83 A3.6
							 3.6 -180 1 0 40.32 84.83 A3.6 3.6 -180 1 0 47.52 84.83 ZM39.6 81.23 A3.6 3.6 -180 1 0 32.4 81.23 A3.6
							 3.6 -180 1 0 39.6 81.23 ZM31.68 84.83 A3.6 3.6 -180 1 0 24.48 84.83 A3.6 3.6 -180 1 0 31.68 84.83 ZM28.08
							 92.75 A3.6 3.6 -180 1 0 20.88 92.75 A3.6 3.6 -180 1 0 28.08 92.75 ZM31.68 100.67 A3.6 3.6 -180 1 0 24.48
							 100.67 A3.6 3.6 -180 1 0 31.68 100.67 ZM39.6 104.27 A3.6 3.6 -180 1 0 32.4 104.27 A3.6 3.6 -180 1 0
							 39.6 104.27 ZM47.52 100.67 A3.6 3.6 -180 1 0 40.32 100.67 A3.6 3.6 -180 1 0 47.52 100.67 ZM51.12 92.75
							 A3.6 3.6 -180 1 0 43.92 92.75 A3.6 3.6 -180 1 0 51.12 92.75 ZM47.52 84.83 A3.6 3.6 -180 1 0 40.32 84.83
							 A3.6 3.6 -180 1 0 47.52 84.83 ZM39.6 81.23 A3.6 3.6 -180 1 0 32.4 81.23 A3.6 3.6 -180 1 0 39.6 81.23
							 ZM31.68 84.83 A3.6 3.6 -180 1 0 24.48 84.83 A3.6 3.6 -180 1 0 31.68 84.83 ZM28.08 92.75 A3.6 3.6 -180
							 1 0 20.88 92.75 A3.6 3.6 -180 1 0 28.08 92.75 ZM31.68 100.67 A3.6 3.6 -180 1 0 24.48 100.67 A3.6 3.6
							 -180 1 0 31.68 100.67 ZM39.6 104.27 A3.6 3.6 -180 1 0 32.4 104.27 A3.6 3.6 -180 1 0 39.6 104.27 ZM47.52
							 100.67 A3.6 3.6 -180 1 0 40.32 100.67 A3.6 3.6 -180 1 0 47.52 100.67 ZM51.12 92.75 A3.6 3.6 -180 1 0
							 43.92 92.75 A3.6 3.6 -180 1 0 51.12 92.75 ZM47.52 84.83 A3.6 3.6 -180 1 0 40.32 84.83 A3.6 3.6 -180
							 1 0 47.52 84.83 ZM39.6 81.23 A3.6 3.6 -180 1 0 32.4 81.23 A3.6 3.6 -180 1 0 39.6 81.23 ZM31.68 84.83
							 A3.6 3.6 -180 1 0 24.48 84.83 A3.6 3.6 -180 1 0 31.68 84.83 ZM28.08 92.75 A3.6 3.6 -180 1 0 20.88 92.75
							 A3.6 3.6 -180 1 0 28.08 92.75 ZM31.68 100.67 A3.6 3.6 -180 1 0 24.48 100.67 A3.6 3.6 -180 1 0 31.68
							 100.67 ZM39.6 104.27 A3.6 3.6 -180 1 0 32.4 104.27 A3.6 3.6 -180 1 0 39.6 104.27 ZM47.52 100.67 A3.6
							 3.6 -180 1 0 40.32 100.67 A3.6 3.6 -180 1 0 47.52 100.67 ZM51.12 92.75 A3.6 3.6 -180 1 0 43.92 92.75
							 A3.6 3.6 -180 1 0 51.12 92.75 ZM47.52 84.83 A3.6 3.6 -180 1 0 40.32 84.83 A3.6 3.6 -180 1 0 47.52 84.83
							 ZM39.6 81.23 A3.6 3.6 -180 1 0 32.4 81.23 A3.6 3.6 -180 1 0 39.6 81.23 ZM31.68 84.83 A3.6 3.6 -180 1
							 0 24.48 84.83 A3.6 3.6 -180 1 0 31.68 84.83 Z" class="st5"/>
			</g>
			<g id="shape153-86" v:mID="153" v:groupContext="shape">
				<title>Sheet.153</title>
				<ellipse cx="36" cy="92.75" rx="18" ry="18" class="st5"/>
			</g>
			<g id="shape154-88" v:mID="154" v:groupContext="shape" transform="translate(24.75,-24.75)">
				<title>Sheet.154</title>
				<v:userDefs>
					<v:ud v:nameU="SurroundingRegionColor" v:prompt="" v:val="VT5(1)"/>
				</v:userDefs>
				<ellipse cx="11.25" cy="117.5" rx="11.25" ry="11.25" class="st5"/>
			</g>
		</g>
	</g>
</svg>
