<?xml version="1.0" encoding="UTF-8" standalone="no"?>
<!DOCTYPE svg PUBLIC "-//W3C//DTD SVG 1.1//EN" "http://www.w3.org/Graphics/SVG/1.1/DTD/svg11.dtd">
<!-- Generated by Microsoft Visio, SVG Export FINESSE.svg Page-1 -->
<svg xmlns="http://www.w3.org/2000/svg" xmlns:xlink="http://www.w3.org/1999/xlink" xmlns:ev="http://www.w3.org/2001/xml-events"
		xmlns:v="http://schemas.microsoft.com/visio/2003/SVGExtensions/" width="2.16146in" height="1.78819in"
		viewBox="0 0 155.625 128.75" xml:space="preserve" color-interpolation-filters="sRGB" class="st5">
	<v:documentProperties v:langID="1033" v:viewMarkup="false">
		<v:userDefs>
			<v:ud v:nameU="msvNoAutoConnect" v:val="VT0(1):26"/>
		</v:userDefs>
	</v:documentProperties>

	<style type="text/css">
	<![CDATA[
		.st1 {fill:none;stroke:none;stroke-linecap:round;stroke-linejoin:round;stroke-width:0.75}
		.st2 {fill:#3b5da7;font-family:Verdana;font-size:1.16666em;font-weight:bold}
		.st3 {font-size:1em}
		.st4 {fill:#ffffff;stroke:#3b5da7;stroke-linecap:round;stroke-linejoin:round;stroke-width:3}
		.st5 {fill:none;fill-rule:evenodd;font-size:12px;overflow:visible;stroke-linecap:square;stroke-miterlimit:3}
	]]>
	</style>

	<g v:mID="0" v:index="1" v:groupContext="foregroundPage">
		<title>Page-1</title>
		<v:pageProperties v:drawingScale="1" v:pageScale="1" v:drawingUnits="19" v:shadowOffsetX="9" v:shadowOffsetY="-9"/>
		<g id="shape1-1" v:mID="1" v:groupContext="shape" transform="translate(112.5,2.25)">
			<title>Sheet.1</title>
			<desc>FINESSE</desc>
			<v:textBlock v:margins="rect(4,4,4,4)"/>
			<v:textRect cx="9.95519" cy="64.625" width="19.92" height="128.25"/>
			<rect x="0" y="0.5" width="19.9104" height="128.25" class="st1"/>
			<text x="5.4" y="18.43" class="st2" v:langID="1033"><v:paragraph v:horizAlign="1"/><v:tabList/>F<tspan x="6.13"
						dy="1.2em" class="st3">I</tspan><tspan x="4.03" dy="1.2em" class="st3">N</tspan><tspan x="5.17" dy="1.2em"
						class="st3">E</tspan><tspan x="4.98" dy="1.2em" class="st3">S</tspan><tspan x="4.98" dy="1.2em" class="st3">S</tspan><tspan
						x="5.17" dy="1.2em" class="st3">E</tspan></text>		</g>
		<g id="group110-10" transform="translate(13.5,-65.25)" v:mID="110" v:groupContext="group">
			<v:custProps>
				<v:cp v:nameU="Name" v:lbl="Name" v:prompt="" v:type="0" v:format="" v:sortKey="" v:invis="false" v:ask="false"
						v:langID="1033" v:cal="0"/>
				<v:cp v:nameU="Location" v:lbl="Location" v:prompt="" v:type="0" v:format="" v:sortKey="" v:invis="false"
						v:ask="false" v:langID="1033" v:cal="0"/>
				<v:cp v:nameU="Building" v:lbl="Building" v:prompt="" v:type="0" v:format="" v:sortKey="" v:invis="false"
						v:ask="false" v:langID="1033" v:cal="0"/>
				<v:cp v:nameU="Room" v:lbl="Room" v:prompt="" v:type="0" v:format="" v:sortKey="" v:invis="false" v:ask="false"
						v:langID="1033" v:cal="0"/>
				<v:cp v:nameU="Department" v:lbl="Department" v:prompt="" v:type="0" v:format="" v:sortKey="" v:invis="false"
						v:ask="false" v:langID="1033" v:cal="0"/>
				<v:cp v:nameU="ShapeClass" v:lbl="ShapeClass" v:prompt="" v:type="0" v:format="" v:sortKey="" v:invis="true"
						v:ask="false" v:langID="1033" v:cal="0" v:val="VT4(Connectivity)"/>
				<v:cp v:nameU="ShapeType" v:lbl="ShapeType" v:prompt="" v:type="0" v:format="" v:sortKey="" v:invis="true"
						v:ask="false" v:langID="1033" v:cal="0" v:val="VT4(User)"/>
			</v:custProps>
			<v:userDefs>
				<v:ud v:nameU="visVersion" v:prompt="" v:val="VT0(15):26"/>
				<v:ud v:nameU="ShapeClass" v:prompt="" v:val="VT0(5):26"/>
				<v:ud v:nameU="SolSH" v:prompt="" v:val="VT15({BF0433D9-CD73-4EB5-8390-8653BE590246}):41"/>
				<v:ud v:nameU="visLegendShape" v:prompt="" v:val="VT0(2):26"/>
				<v:ud v:nameU="visIsConnected" v:prompt="" v:val="VT0(0):26"/>
			</v:userDefs>
			<title>User.110</title>
			<g id="shape111-11" v:mID="111" v:groupContext="shape" transform="translate(13.7598,0)">
				<title>Sheet.111</title>
				<path d="M20.04 81.46 A6.71322 6.71322 -180 1 0 6.61 81.46 A6.71322 6.71322 -180 1 0 20.04 81.46 ZM21.02 89.99 L5.46
							 89.99 C2.45 89.99 0 92.44 0 95.45 L0 114.5 L4.26 114.5 L4.26 103.42 L5.68 103.42 L5.68 128.75 L12.61
							 128.75 L12.61 117.43 C12.61 117.03 12.93 116.72 13.32 116.72 C13.71 116.72 14.03 117.03 14.03 117.43
							 L14.03 128.75 L21.37 128.75 L21.37 103.38 L22.79 103.38 L22.79 114.5 L26.48 114.5 L26.48 95.45 C26.48
							 92.44 24.03 89.99 21.02 89.99 Z" class="st4"/>
			</g>
		</g>
		<g id="group118-13" transform="translate(45,-65.25)" v:mID="118" v:groupContext="group">
			<v:custProps>
				<v:cp v:nameU="Name" v:lbl="Name" v:prompt="" v:type="0" v:format="" v:sortKey="" v:invis="false" v:ask="false"
						v:langID="1033" v:cal="0"/>
				<v:cp v:nameU="Location" v:lbl="Location" v:prompt="" v:type="0" v:format="" v:sortKey="" v:invis="false"
						v:ask="false" v:langID="1033" v:cal="0"/>
				<v:cp v:nameU="Building" v:lbl="Building" v:prompt="" v:type="0" v:format="" v:sortKey="" v:invis="false"
						v:ask="false" v:langID="1033" v:cal="0"/>
				<v:cp v:nameU="Room" v:lbl="Room" v:prompt="" v:type="0" v:format="" v:sortKey="" v:invis="false" v:ask="false"
						v:langID="1033" v:cal="0"/>
				<v:cp v:nameU="Department" v:lbl="Department" v:prompt="" v:type="0" v:format="" v:sortKey="" v:invis="false"
						v:ask="false" v:langID="1033" v:cal="0"/>
				<v:cp v:nameU="ShapeClass" v:lbl="ShapeClass" v:prompt="" v:type="0" v:format="" v:sortKey="" v:invis="true"
						v:ask="false" v:langID="1033" v:cal="0" v:val="VT4(Connectivity)"/>
				<v:cp v:nameU="ShapeType" v:lbl="ShapeType" v:prompt="" v:type="0" v:format="" v:sortKey="" v:invis="true"
						v:ask="false" v:langID="1033" v:cal="0" v:val="VT4(User)"/>
			</v:custProps>
			<v:userDefs>
				<v:ud v:nameU="visVersion" v:prompt="" v:val="VT0(15):26"/>
				<v:ud v:nameU="ShapeClass" v:prompt="" v:val="VT0(5):26"/>
				<v:ud v:nameU="SolSH" v:prompt="" v:val="VT15({BF0433D9-CD73-4EB5-8390-8653BE590246}):41"/>
				<v:ud v:nameU="visLegendShape" v:prompt="" v:val="VT0(2):26"/>
				<v:ud v:nameU="visIsConnected" v:prompt="" v:val="VT0(0):26"/>
			</v:userDefs>
			<title>User.118</title>
			<g id="shape119-14" v:mID="119" v:groupContext="shape" transform="translate(13.7598,0)">
				<title>Sheet.119</title>
				<path d="M20.04 81.46 A6.71322 6.71322 -180 1 0 6.61 81.46 A6.71322 6.71322 -180 1 0 20.04 81.46 ZM21.02 89.99 L5.46
							 89.99 C2.45 89.99 0 92.44 0 95.45 L0 114.5 L4.26 114.5 L4.26 103.42 L5.68 103.42 L5.68 128.75 L12.61
							 128.75 L12.61 117.43 C12.61 117.03 12.93 116.72 13.32 116.72 C13.71 116.72 14.03 117.03 14.03 117.43
							 L14.03 128.75 L21.37 128.75 L21.37 103.38 L22.79 103.38 L22.79 114.5 L26.48 114.5 L26.48 95.45 C26.48
							 92.44 24.03 89.99 21.02 89.99 Z" class="st4"/>
			</g>
		</g>
		<g id="group120-16" transform="translate(-2.25,-11.25)" v:mID="120" v:groupContext="group">
			<v:custProps>
				<v:cp v:nameU="Name" v:lbl="Name" v:prompt="" v:type="0" v:format="" v:sortKey="" v:invis="false" v:ask="false"
						v:langID="1033" v:cal="0"/>
				<v:cp v:nameU="Location" v:lbl="Location" v:prompt="" v:type="0" v:format="" v:sortKey="" v:invis="false"
						v:ask="false" v:langID="1033" v:cal="0"/>
				<v:cp v:nameU="Building" v:lbl="Building" v:prompt="" v:type="0" v:format="" v:sortKey="" v:invis="false"
						v:ask="false" v:langID="1033" v:cal="0"/>
				<v:cp v:nameU="Room" v:lbl="Room" v:prompt="" v:type="0" v:format="" v:sortKey="" v:invis="false" v:ask="false"
						v:langID="1033" v:cal="0"/>
				<v:cp v:nameU="Department" v:lbl="Department" v:prompt="" v:type="0" v:format="" v:sortKey="" v:invis="false"
						v:ask="false" v:langID="1033" v:cal="0"/>
				<v:cp v:nameU="ShapeClass" v:lbl="ShapeClass" v:prompt="" v:type="0" v:format="" v:sortKey="" v:invis="true"
						v:ask="false" v:langID="1033" v:cal="0" v:val="VT4(Connectivity)"/>
				<v:cp v:nameU="ShapeType" v:lbl="ShapeType" v:prompt="" v:type="0" v:format="" v:sortKey="" v:invis="true"
						v:ask="false" v:langID="1033" v:cal="0" v:val="VT4(User)"/>
			</v:custProps>
			<v:userDefs>
				<v:ud v:nameU="visVersion" v:prompt="" v:val="VT0(15):26"/>
				<v:ud v:nameU="ShapeClass" v:prompt="" v:val="VT0(5):26"/>
				<v:ud v:nameU="SolSH" v:prompt="" v:val="VT15({BF0433D9-CD73-4EB5-8390-8653BE590246}):41"/>
				<v:ud v:nameU="visLegendShape" v:prompt="" v:val="VT0(2):26"/>
				<v:ud v:nameU="visIsConnected" v:prompt="" v:val="VT0(0):26"/>
			</v:userDefs>
			<title>User.120</title>
			<g id="shape121-17" v:mID="121" v:groupContext="shape" transform="translate(13.7598,0)">
				<title>Sheet.121</title>
				<path d="M20.04 81.46 A6.71322 6.71322 -180 1 0 6.61 81.46 A6.71322 6.71322 -180 1 0 20.04 81.46 ZM21.02 89.99 L5.46
							 89.99 C2.45 89.99 0 92.44 0 95.45 L0 114.5 L4.26 114.5 L4.26 103.42 L5.68 103.42 L5.68 128.75 L12.61
							 128.75 L12.61 117.43 C12.61 117.03 12.93 116.72 13.32 116.72 C13.71 116.72 14.03 117.03 14.03 117.43
							 L14.03 128.75 L21.37 128.75 L21.37 103.38 L22.79 103.38 L22.79 114.5 L26.48 114.5 L26.48 95.45 C26.48
							 92.44 24.03 89.99 21.02 89.99 Z" class="st4"/>
			</g>
		</g>
		<g id="group122-19" transform="translate(29.25,-11.25)" v:mID="122" v:groupContext="group">
			<v:custProps>
				<v:cp v:nameU="Name" v:lbl="Name" v:prompt="" v:type="0" v:format="" v:sortKey="" v:invis="false" v:ask="false"
						v:langID="1033" v:cal="0"/>
				<v:cp v:nameU="Location" v:lbl="Location" v:prompt="" v:type="0" v:format="" v:sortKey="" v:invis="false"
						v:ask="false" v:langID="1033" v:cal="0"/>
				<v:cp v:nameU="Building" v:lbl="Building" v:prompt="" v:type="0" v:format="" v:sortKey="" v:invis="false"
						v:ask="false" v:langID="1033" v:cal="0"/>
				<v:cp v:nameU="Room" v:lbl="Room" v:prompt="" v:type="0" v:format="" v:sortKey="" v:invis="false" v:ask="false"
						v:langID="1033" v:cal="0"/>
				<v:cp v:nameU="Department" v:lbl="Department" v:prompt="" v:type="0" v:format="" v:sortKey="" v:invis="false"
						v:ask="false" v:langID="1033" v:cal="0"/>
				<v:cp v:nameU="ShapeClass" v:lbl="ShapeClass" v:prompt="" v:type="0" v:format="" v:sortKey="" v:invis="true"
						v:ask="false" v:langID="1033" v:cal="0" v:val="VT4(Connectivity)"/>
				<v:cp v:nameU="ShapeType" v:lbl="ShapeType" v:prompt="" v:type="0" v:format="" v:sortKey="" v:invis="true"
						v:ask="false" v:langID="1033" v:cal="0" v:val="VT4(User)"/>
			</v:custProps>
			<v:userDefs>
				<v:ud v:nameU="visVersion" v:prompt="" v:val="VT0(15):26"/>
				<v:ud v:nameU="ShapeClass" v:prompt="" v:val="VT0(5):26"/>
				<v:ud v:nameU="SolSH" v:prompt="" v:val="VT15({BF0433D9-CD73-4EB5-8390-8653BE590246}):41"/>
				<v:ud v:nameU="visLegendShape" v:prompt="" v:val="VT0(2):26"/>
				<v:ud v:nameU="visIsConnected" v:prompt="" v:val="VT0(0):26"/>
			</v:userDefs>
			<title>User.122</title>
			<g id="shape123-20" v:mID="123" v:groupContext="shape" transform="translate(13.7598,0)">
				<title>Sheet.123</title>
				<path d="M20.04 81.46 A6.71322 6.71322 -180 1 0 6.61 81.46 A6.71322 6.71322 -180 1 0 20.04 81.46 ZM21.02 89.99 L5.46
							 89.99 C2.45 89.99 0 92.44 0 95.45 L0 114.5 L4.26 114.5 L4.26 103.42 L5.68 103.42 L5.68 128.75 L12.61
							 128.75 L12.61 117.43 C12.61 117.03 12.93 116.72 13.32 116.72 C13.71 116.72 14.03 117.03 14.03 117.43
							 L14.03 128.75 L21.37 128.75 L21.37 103.38 L22.79 103.38 L22.79 114.5 L26.48 114.5 L26.48 95.45 C26.48
							 92.44 24.03 89.99 21.02 89.99 Z" class="st4"/>
			</g>
		</g>
		<g id="group124-22" transform="translate(60.75,-11.25)" v:mID="124" v:groupContext="group">
			<v:custProps>
				<v:cp v:nameU="Name" v:lbl="Name" v:prompt="" v:type="0" v:format="" v:sortKey="" v:invis="false" v:ask="false"
						v:langID="1033" v:cal="0"/>
				<v:cp v:nameU="Location" v:lbl="Location" v:prompt="" v:type="0" v:format="" v:sortKey="" v:invis="false"
						v:ask="false" v:langID="1033" v:cal="0"/>
				<v:cp v:nameU="Building" v:lbl="Building" v:prompt="" v:type="0" v:format="" v:sortKey="" v:invis="false"
						v:ask="false" v:langID="1033" v:cal="0"/>
				<v:cp v:nameU="Room" v:lbl="Room" v:prompt="" v:type="0" v:format="" v:sortKey="" v:invis="false" v:ask="false"
						v:langID="1033" v:cal="0"/>
				<v:cp v:nameU="Department" v:lbl="Department" v:prompt="" v:type="0" v:format="" v:sortKey="" v:invis="false"
						v:ask="false" v:langID="1033" v:cal="0"/>
				<v:cp v:nameU="ShapeClass" v:lbl="ShapeClass" v:prompt="" v:type="0" v:format="" v:sortKey="" v:invis="true"
						v:ask="false" v:langID="1033" v:cal="0" v:val="VT4(Connectivity)"/>
				<v:cp v:nameU="ShapeType" v:lbl="ShapeType" v:prompt="" v:type="0" v:format="" v:sortKey="" v:invis="true"
						v:ask="false" v:langID="1033" v:cal="0" v:val="VT4(User)"/>
			</v:custProps>
			<v:userDefs>
				<v:ud v:nameU="visVersion" v:prompt="" v:val="VT0(15):26"/>
				<v:ud v:nameU="ShapeClass" v:prompt="" v:val="VT0(5):26"/>
				<v:ud v:nameU="SolSH" v:prompt="" v:val="VT15({BF0433D9-CD73-4EB5-8390-8653BE590246}):41"/>
				<v:ud v:nameU="visLegendShape" v:prompt="" v:val="VT0(2):26"/>
				<v:ud v:nameU="visIsConnected" v:prompt="" v:val="VT0(0):26"/>
			</v:userDefs>
			<title>User.124</title>
			<g id="shape125-23" v:mID="125" v:groupContext="shape" transform="translate(13.7598,0)">
				<title>Sheet.125</title>
				<path d="M20.04 81.46 A6.71322 6.71322 -180 1 0 6.61 81.46 A6.71322 6.71322 -180 1 0 20.04 81.46 ZM21.02 89.99 L5.46
							 89.99 C2.45 89.99 0 92.44 0 95.45 L0 114.5 L4.26 114.5 L4.26 103.42 L5.68 103.42 L5.68 128.75 L12.61
							 128.75 L12.61 117.43 C12.61 117.03 12.93 116.72 13.32 116.72 C13.71 116.72 14.03 117.03 14.03 117.43
							 L14.03 128.75 L21.37 128.75 L21.37 103.38 L22.79 103.38 L22.79 114.5 L26.48 114.5 L26.48 95.45 C26.48
							 92.44 24.03 89.99 21.02 89.99 Z" class="st4"/>
			</g>
		</g>
	</g>
</svg>
